<svg id="svg" xmlns="http://www.w3.org/2000/svg" xmlns:xlink="http://www.w3.org/1999/xlink" width="400" height="400" viewBox="0, 0, 400,400"><g id="svgg"><path id="path0" d="M184.961 5.692 C 181.842 7.315,181.585 8.003,180.670 17.182 C 179.751 26.402,179.375 26.863,171.766 28.092 C 164.530 29.261,164.075 28.945,159.921 19.884 C 155.704 10.686,154.569 9.926,147.744 11.735 C 140.975 13.530,140.405 14.846,141.658 25.791 C 142.668 34.612,142.202 35.500,135.134 38.243 C 128.444 40.840,127.955 40.637,122.042 32.813 C 115.969 24.777,114.114 24.123,107.692 27.751 C 102.124 30.897,101.871 32.209,105.054 41.438 C 108.410 51.170,108.333 51.499,101.651 56.019 C 95.530 60.159,95.460 60.145,87.325 53.160 C 80.187 47.031,78.562 46.784,73.368 51.034 C 67.982 55.440,67.918 57.304,72.872 65.311 C 78.532 74.461,78.531 74.763,72.793 80.564 C 67.855 85.555,67.173 85.645,60.806 82.129 C 49.823 76.065,48.577 76.043,44.062 81.836 C 39.792 87.316,40.124 88.917,47.007 96.000 C 54.093 103.292,54.164 103.585,50.390 109.963 C 46.335 116.813,46.048 116.897,36.122 114.091 C 26.307 111.316,24.825 111.775,21.973 118.475 C 19.435 124.435,20.096 125.886,27.620 130.891 C 36.726 136.948,36.793 137.081,34.384 144.310 C 31.951 151.611,31.689 151.763,22.314 151.310 C 11.228 150.774,10.090 151.297,8.747 157.553 C 7.145 165.018,7.962 166.172,17.438 169.830 C 26.513 173.333,26.826 173.675,26.407 179.635 C 25.762 188.813,25.385 189.169,14.514 190.856 C 5.073 192.323,4.297 193.032,4.297 200.195 C 4.297 207.359,5.073 208.068,14.514 209.534 C 25.385 211.222,25.762 211.578,26.407 220.755 C 26.826 226.716,26.513 227.057,17.438 230.561 C 7.962 234.219,7.145 235.372,8.747 242.838 C 10.090 249.093,11.228 249.617,22.314 249.081 C 31.689 248.628,31.951 248.780,34.384 256.081 C 36.793 263.310,36.726 263.442,27.620 269.499 C 20.096 274.504,19.435 275.956,21.973 281.916 C 24.825 288.615,26.307 289.074,36.122 286.300 C 46.048 283.494,46.335 283.577,50.390 290.428 C 54.164 296.805,54.093 297.098,47.007 304.391 C 40.124 311.474,39.792 313.075,44.062 318.555 C 48.594 324.370,49.832 324.340,61.002 318.143 C 67.123 314.746,67.860 314.860,72.950 319.992 C 78.511 325.598,78.509 325.968,72.872 335.079 C 67.918 343.087,67.982 344.951,73.368 349.357 C 78.562 353.607,80.187 353.359,87.325 347.231 C 95.460 340.245,95.530 340.231,101.651 344.372 C 108.333 348.892,108.410 349.220,105.054 358.953 C 101.871 368.182,102.124 369.493,107.692 372.639 C 114.114 376.268,115.969 375.614,122.042 367.578 C 127.955 359.753,128.444 359.551,135.134 362.147 C 142.202 364.890,142.668 365.779,141.658 374.600 C 140.405 385.544,140.975 386.861,147.744 388.655 C 154.506 390.448,155.789 389.624,159.680 380.990 C 163.966 371.477,164.488 371.101,171.754 372.288 C 179.411 373.539,179.756 373.969,180.696 383.410 C 181.764 394.134,182.415 395.011,189.492 395.253 C 197.439 395.525,197.678 395.202,200.766 380.004 C 201.653 375.640,203.183 374.689,209.868 374.350 C 217.246 373.976,217.688 374.349,220.712 383.507 C 224.040 393.582,224.855 394.283,231.906 393.142 C 238.840 392.019,239.453 391.042,239.454 381.095 C 239.455 370.744,239.666 370.389,247.074 368.318 C 254.333 366.290,254.736 366.505,259.931 375.175 C 265.206 383.978,266.396 384.549,273.418 381.650 C 279.452 379.159,279.855 377.772,277.498 367.624 C 275.397 358.578,275.623 357.924,282.031 354.471 C 288.923 350.757,289.514 350.922,296.484 358.499 C 303.122 365.714,304.800 366.057,311.182 361.503 C 316.059 358.023,316.164 356.187,311.977 347.499 C 307.748 338.720,307.827 337.983,313.508 333.199 C 318.298 329.166,320.634 328.604,323.490 330.801 C 335.004 339.655,337.994 340.140,343.285 334.008 C 347.301 329.354,347.113 327.813,341.682 320.829 C 334.767 311.937,334.779 312.032,339.787 305.513 C 344.136 299.853,344.896 299.736,353.711 303.375 C 362.970 307.197,364.604 306.974,368.140 301.407 C 371.959 295.394,371.394 293.554,363.755 287.115 C 356.008 280.586,355.839 280.034,359.396 272.852 C 361.368 268.869,361.655 268.489,363.327 267.660 L 365.130 266.764 371.910 267.953 C 382.772 269.856,383.903 269.445,386.171 262.777 C 388.499 255.935,387.642 254.626,377.451 249.450 C 370.055 245.695,369.549 244.717,371.221 237.426 C 372.842 230.359,373.505 229.926,383.375 229.504 C 393.658 229.064,394.870 228.124,395.196 220.332 C 395.470 213.786,395.040 213.366,385.401 210.750 C 375.358 208.023,375.307 207.970,375.307 200.195 C 375.307 192.421,375.358 192.367,385.401 189.641 C 395.040 187.024,395.470 186.604,395.196 180.059 C 394.870 172.267,393.658 171.327,383.375 170.887 C 373.505 170.464,372.842 170.032,371.221 162.965 C 369.549 155.674,370.055 154.696,377.451 150.940 C 387.642 145.765,388.499 144.456,386.171 137.614 C 383.903 130.944,382.774 130.534,371.896 132.441 L 365.102 133.631 363.313 132.712 C 361.673 131.869,361.346 131.436,359.396 127.517 C 355.818 120.329,355.984 119.800,363.903 113.144 C 371.377 106.862,371.943 104.971,368.140 98.983 C 364.604 93.416,362.970 93.194,353.711 97.016 C 344.896 100.655,344.136 100.538,339.787 94.877 C 334.779 88.359,334.767 88.453,341.682 79.561 C 347.113 72.578,347.301 71.037,343.285 66.382 C 337.994 60.250,335.004 60.735,323.490 69.590 C 320.634 71.786,318.298 71.225,313.508 67.192 C 307.827 62.408,307.748 61.670,311.977 52.892 C 316.164 44.203,316.059 42.368,311.182 38.887 C 304.800 34.334,303.122 34.677,296.484 41.892 C 289.514 49.469,288.923 49.633,282.031 45.920 C 275.623 42.467,275.397 41.812,277.498 32.767 C 279.918 22.348,279.500 21.133,272.548 18.387 C 266.335 15.933,265.089 16.608,259.931 25.216 C 254.736 33.886,254.333 34.101,247.074 32.072 C 239.666 30.002,239.455 29.646,239.454 19.296 C 239.453 9.365,238.816 8.346,231.909 7.228 C 224.884 6.090,224.036 6.822,220.712 16.884 C 217.688 26.041,217.246 26.414,209.868 26.040 C 203.183 25.701,201.653 24.751,200.766 20.386 C 198.316 8.327,197.805 6.965,195.234 5.627 C 193.710 4.834,186.524 4.880,184.961 5.692 M172.382 64.593 C 175.029 65.888,177.851 68.856,179.227 71.790 L 180.273 74.023 180.393 96.875 C 180.543 125.435,181.010 123.702,172.253 127.075 C 164.164 130.192,157.735 133.853,151.175 139.079 C 143.201 145.432,145.317 145.913,121.849 132.411 C 101.076 120.459,99.917 119.648,97.911 115.637 C 94.393 108.605,96.038 103.674,104.408 96.171 C 118.536 83.506,132.954 74.595,149.609 68.236 C 163.023 63.115,167.800 62.351,172.382 64.593 M240.105 64.616 C 261.791 70.878,282.924 83.151,298.719 98.656 C 304.375 104.208,305.678 109.510,302.815 115.325 C 300.757 119.506,299.263 120.561,278.528 132.478 C 255.483 145.723,257.040 145.333,249.974 139.627 C 243.264 134.207,234.268 129.110,226.830 126.515 C 219.642 124.006,219.876 125.006,220.008 97.355 L 220.117 74.414 221.024 72.169 C 224.115 64.514,230.712 61.903,240.105 64.616 M212.305 150.138 C 255.604 161.259,266.137 217.257,229.664 242.436 C 189.408 270.229,136.331 231.202,151.043 184.628 C 159.060 159.251,186.856 143.602,212.305 150.138 M82.247 155.232 C 86.562 157.208,120.145 176.750,121.326 177.972 C 123.337 180.054,123.665 182.059,122.803 187.005 C 122.230 190.296,122.070 193.165,122.070 200.195 C 122.070 207.225,122.230 210.094,122.803 213.385 C 124.222 221.532,124.787 220.962,102.734 233.649 C 80.258 246.581,80.869 246.288,76.367 246.274 C 66.400 246.242,62.767 240.358,59.736 219.336 C 56.632 197.810,60.173 164.952,66.308 158.352 C 70.322 154.034,76.842 152.758,82.247 155.232 M329.858 155.212 C 334.606 157.386,336.479 160.381,338.469 168.985 C 343.189 189.389,343.189 211.002,338.469 231.406 C 336.059 241.827,332.674 245.662,325.280 246.352 C 320.866 246.765,319.263 246.030,298.438 234.041 C 274.914 220.500,276.162 221.867,277.882 211.523 C 278.864 205.617,278.864 194.774,277.882 188.867 C 276.160 178.513,274.915 179.877,298.438 166.347 C 321.752 152.936,323.519 152.310,329.858 155.212 M146.160 257.651 C 146.819 257.992,149.076 259.640,151.175 261.312 C 157.735 266.538,164.164 270.199,172.253 273.316 C 181.010 276.689,180.543 274.956,180.393 303.516 L 180.273 326.367 179.227 328.601 C 175.668 336.193,169.536 338.490,160.156 335.745 C 143.072 330.746,126.012 321.866,111.914 310.636 C 96.613 298.449,93.730 293.111,97.921 284.734 C 99.918 280.742,101.039 279.956,121.893 267.945 C 142.663 255.983,142.812 255.920,146.160 257.651 M278.528 267.913 C 299.263 279.830,300.757 280.884,302.815 285.066 C 305.683 290.890,304.368 296.219,298.701 301.745 C 282.364 317.676,260.448 330.264,238.761 336.172 C 230.641 338.384,223.909 335.366,221.024 328.221 L 220.117 325.977 220.008 303.035 C 219.876 275.384,219.642 276.384,226.830 273.876 C 234.267 271.281,243.264 266.184,249.972 260.766 C 257.051 255.048,255.447 254.647,278.528 267.913 " stroke="none" fill="#000000" fill-rule="evenodd"></path></g></svg>